<mxfile host="65bd71144e">
    <diagram name="Page-1" id="l0s_Csb_18p8T1V0vMig">
        <mxGraphModel dx="1958" dy="879" grid="1" gridSize="10" guides="1" tooltips="1" connect="1" arrows="1" fold="1" page="0" pageScale="1" pageWidth="827" pageHeight="1169" math="0" shadow="0">
            <root>
                <mxCell id="0"/>
                <mxCell id="1" parent="0"/>
                <mxCell id="W2y6yl1jh82kHbquKtIm-1" value="n" style="rounded=0;whiteSpace=wrap;html=1;fillColor=#dae8fc;strokeColor=#6c8ebf;fontStyle=1;fontFamily=Courier New;" parent="1" vertex="1">
                    <mxGeometry x="610" y="80" width="30" height="30" as="geometry"/>
                </mxCell>
                <mxCell id="W2y6yl1jh82kHbquKtIm-2" value="n" style="rounded=0;whiteSpace=wrap;html=1;fillColor=#dae8fc;strokeColor=#6c8ebf;fontStyle=1;fontFamily=Courier New;" parent="1" vertex="1">
                    <mxGeometry x="580" y="80" width="30" height="30" as="geometry"/>
                </mxCell>
                <mxCell id="W2y6yl1jh82kHbquKtIm-3" value="n" style="rounded=0;whiteSpace=wrap;html=1;fillColor=#dae8fc;strokeColor=#6c8ebf;fontStyle=1;fontFamily=Courier New;" parent="1" vertex="1">
                    <mxGeometry x="550" y="80" width="30" height="30" as="geometry"/>
                </mxCell>
                <mxCell id="W2y6yl1jh82kHbquKtIm-4" value="n" style="rounded=0;whiteSpace=wrap;html=1;fillColor=#dae8fc;strokeColor=#6c8ebf;fontStyle=1;fontFamily=Courier New;" parent="1" vertex="1">
                    <mxGeometry x="520" y="80" width="30" height="30" as="geometry"/>
                </mxCell>
                <mxCell id="W2y6yl1jh82kHbquKtIm-5" value="n" style="rounded=0;whiteSpace=wrap;html=1;fillColor=#dae8fc;strokeColor=#6c8ebf;fontStyle=1;fontFamily=Courier New;" parent="1" vertex="1">
                    <mxGeometry x="490" y="80" width="30" height="30" as="geometry"/>
                </mxCell>
                <mxCell id="W2y6yl1jh82kHbquKtIm-6" value="n" style="rounded=0;whiteSpace=wrap;html=1;fillColor=#dae8fc;strokeColor=#6c8ebf;fontStyle=1;fontFamily=Courier New;" parent="1" vertex="1">
                    <mxGeometry x="460" y="80" width="30" height="30" as="geometry"/>
                </mxCell>
                <mxCell id="W2y6yl1jh82kHbquKtIm-7" value="n" style="rounded=0;whiteSpace=wrap;html=1;fillColor=#dae8fc;strokeColor=#6c8ebf;fontStyle=1;fontFamily=Courier New;" parent="1" vertex="1">
                    <mxGeometry x="430" y="80" width="30" height="30" as="geometry"/>
                </mxCell>
                <mxCell id="W2y6yl1jh82kHbquKtIm-8" value="0" style="rounded=0;whiteSpace=wrap;html=1;fontStyle=1;fontFamily=Courier New;" parent="1" vertex="1">
                    <mxGeometry x="400" y="80" width="30" height="30" as="geometry"/>
                </mxCell>
                <mxCell id="W2y6yl1jh82kHbquKtIm-9" value="7" style="rounded=0;whiteSpace=wrap;html=1;fillColor=#f5f5f5;strokeColor=#666666;fontStyle=1;fontFamily=Courier New;fontColor=#333333;" parent="1" vertex="1">
                    <mxGeometry x="430" y="110" width="210" height="30" as="geometry"/>
                </mxCell>
                <mxCell id="W2y6yl1jh82kHbquKtIm-10" value="n" style="rounded=0;whiteSpace=wrap;html=1;fillColor=#dae8fc;strokeColor=#6c8ebf;fontStyle=1;fontFamily=Courier New;" parent="1" vertex="1">
                    <mxGeometry x="610" y="180" width="30" height="30" as="geometry"/>
                </mxCell>
                <mxCell id="W2y6yl1jh82kHbquKtIm-11" value="n" style="rounded=0;whiteSpace=wrap;html=1;fillColor=#dae8fc;strokeColor=#6c8ebf;fontStyle=1;fontFamily=Courier New;" parent="1" vertex="1">
                    <mxGeometry x="580" y="180" width="30" height="30" as="geometry"/>
                </mxCell>
                <mxCell id="W2y6yl1jh82kHbquKtIm-12" value="n" style="rounded=0;whiteSpace=wrap;html=1;fillColor=#dae8fc;strokeColor=#6c8ebf;fontStyle=1;fontFamily=Courier New;" parent="1" vertex="1">
                    <mxGeometry x="550" y="180" width="30" height="30" as="geometry"/>
                </mxCell>
                <mxCell id="W2y6yl1jh82kHbquKtIm-13" value="n" style="rounded=0;whiteSpace=wrap;html=1;fillColor=#dae8fc;strokeColor=#6c8ebf;fontStyle=1;fontFamily=Courier New;" parent="1" vertex="1">
                    <mxGeometry x="520" y="180" width="30" height="30" as="geometry"/>
                </mxCell>
                <mxCell id="W2y6yl1jh82kHbquKtIm-14" value="n" style="rounded=0;whiteSpace=wrap;html=1;fillColor=#dae8fc;strokeColor=#6c8ebf;fontStyle=1;fontFamily=Courier New;" parent="1" vertex="1">
                    <mxGeometry x="490" y="180" width="30" height="30" as="geometry"/>
                </mxCell>
                <mxCell id="W2y6yl1jh82kHbquKtIm-15" value="n" style="rounded=0;whiteSpace=wrap;html=1;fillColor=#dae8fc;strokeColor=#6c8ebf;fontStyle=1;fontFamily=Courier New;" parent="1" vertex="1">
                    <mxGeometry x="460" y="180" width="30" height="30" as="geometry"/>
                </mxCell>
                <mxCell id="W2y6yl1jh82kHbquKtIm-17" value="1" style="rounded=0;whiteSpace=wrap;html=1;fontStyle=1;fontFamily=Courier New;" parent="1" vertex="1">
                    <mxGeometry x="400" y="180" width="30" height="30" as="geometry"/>
                </mxCell>
                <mxCell id="W2y6yl1jh82kHbquKtIm-18" value="6" style="rounded=0;whiteSpace=wrap;html=1;fillColor=#f5f5f5;strokeColor=#666666;fontStyle=1;fontFamily=Courier New;fontColor=#333333;" parent="1" vertex="1">
                    <mxGeometry x="460" y="210" width="180" height="30" as="geometry"/>
                </mxCell>
                <mxCell id="W2y6yl1jh82kHbquKtIm-19" value="0" style="rounded=0;whiteSpace=wrap;html=1;fontStyle=1;fontFamily=Courier New;" parent="1" vertex="1">
                    <mxGeometry x="430" y="180" width="30" height="30" as="geometry"/>
                </mxCell>
                <mxCell id="W2y6yl1jh82kHbquKtIm-20" value="n" style="rounded=0;whiteSpace=wrap;html=1;fillColor=#dae8fc;strokeColor=#6c8ebf;fontStyle=1;fontFamily=Courier New;" parent="1" vertex="1">
                    <mxGeometry x="360" y="180" width="30" height="30" as="geometry"/>
                </mxCell>
                <mxCell id="W2y6yl1jh82kHbquKtIm-21" value="n" style="rounded=0;whiteSpace=wrap;html=1;fillColor=#dae8fc;strokeColor=#6c8ebf;fontStyle=1;fontFamily=Courier New;" parent="1" vertex="1">
                    <mxGeometry x="330" y="180" width="30" height="30" as="geometry"/>
                </mxCell>
                <mxCell id="W2y6yl1jh82kHbquKtIm-22" value="n" style="rounded=0;whiteSpace=wrap;html=1;fillColor=#dae8fc;strokeColor=#6c8ebf;fontStyle=1;fontFamily=Courier New;" parent="1" vertex="1">
                    <mxGeometry x="300" y="180" width="30" height="30" as="geometry"/>
                </mxCell>
                <mxCell id="W2y6yl1jh82kHbquKtIm-23" value="n" style="rounded=0;whiteSpace=wrap;html=1;fillColor=#dae8fc;strokeColor=#6c8ebf;fontStyle=1;fontFamily=Courier New;" parent="1" vertex="1">
                    <mxGeometry x="270" y="180" width="30" height="30" as="geometry"/>
                </mxCell>
                <mxCell id="W2y6yl1jh82kHbquKtIm-24" value="n" style="rounded=0;whiteSpace=wrap;html=1;fillColor=#dae8fc;strokeColor=#6c8ebf;fontStyle=1;fontFamily=Courier New;" parent="1" vertex="1">
                    <mxGeometry x="240" y="180" width="30" height="30" as="geometry"/>
                </mxCell>
                <mxCell id="W2y6yl1jh82kHbquKtIm-26" value="1" style="rounded=0;whiteSpace=wrap;html=1;fontStyle=1;fontFamily=Courier New;" parent="1" vertex="1">
                    <mxGeometry x="150" y="180" width="30" height="30" as="geometry"/>
                </mxCell>
                <mxCell id="W2y6yl1jh82kHbquKtIm-27" value="5" style="rounded=0;whiteSpace=wrap;html=1;fillColor=#f5f5f5;strokeColor=#666666;fontStyle=1;fontFamily=Courier New;fontColor=#333333;" parent="1" vertex="1">
                    <mxGeometry x="240" y="210" width="150" height="30" as="geometry"/>
                </mxCell>
                <mxCell id="W2y6yl1jh82kHbquKtIm-28" value="0" style="rounded=0;whiteSpace=wrap;html=1;fontStyle=1;fontFamily=Courier New;" parent="1" vertex="1">
                    <mxGeometry x="210" y="180" width="30" height="30" as="geometry"/>
                </mxCell>
                <mxCell id="W2y6yl1jh82kHbquKtIm-29" value="1" style="rounded=0;whiteSpace=wrap;html=1;fontStyle=1;fontFamily=Courier New;" parent="1" vertex="1">
                    <mxGeometry x="180" y="180" width="30" height="30" as="geometry"/>
                </mxCell>
                <mxCell id="W2y6yl1jh82kHbquKtIm-30" value="n" style="rounded=0;whiteSpace=wrap;html=1;fillColor=#dae8fc;strokeColor=#6c8ebf;fontStyle=1;fontFamily=Courier New;" parent="1" vertex="1">
                    <mxGeometry x="610" y="280" width="30" height="30" as="geometry"/>
                </mxCell>
                <mxCell id="W2y6yl1jh82kHbquKtIm-31" value="n" style="rounded=0;whiteSpace=wrap;html=1;fillColor=#dae8fc;strokeColor=#6c8ebf;fontStyle=1;fontFamily=Courier New;" parent="1" vertex="1">
                    <mxGeometry x="580" y="280" width="30" height="30" as="geometry"/>
                </mxCell>
                <mxCell id="W2y6yl1jh82kHbquKtIm-32" value="n" style="rounded=0;whiteSpace=wrap;html=1;fillColor=#dae8fc;strokeColor=#6c8ebf;fontStyle=1;fontFamily=Courier New;" parent="1" vertex="1">
                    <mxGeometry x="550" y="280" width="30" height="30" as="geometry"/>
                </mxCell>
                <mxCell id="W2y6yl1jh82kHbquKtIm-33" value="n" style="rounded=0;whiteSpace=wrap;html=1;fillColor=#dae8fc;strokeColor=#6c8ebf;fontStyle=1;fontFamily=Courier New;" parent="1" vertex="1">
                    <mxGeometry x="520" y="280" width="30" height="30" as="geometry"/>
                </mxCell>
                <mxCell id="W2y6yl1jh82kHbquKtIm-34" value="n" style="rounded=0;whiteSpace=wrap;html=1;fillColor=#dae8fc;strokeColor=#6c8ebf;fontStyle=1;fontFamily=Courier New;" parent="1" vertex="1">
                    <mxGeometry x="490" y="280" width="30" height="30" as="geometry"/>
                </mxCell>
                <mxCell id="W2y6yl1jh82kHbquKtIm-35" value="n" style="rounded=0;whiteSpace=wrap;html=1;fillColor=#dae8fc;strokeColor=#6c8ebf;fontStyle=1;fontFamily=Courier New;" parent="1" vertex="1">
                    <mxGeometry x="460" y="280" width="30" height="30" as="geometry"/>
                </mxCell>
                <mxCell id="W2y6yl1jh82kHbquKtIm-36" value="1" style="rounded=0;whiteSpace=wrap;html=1;fontStyle=1;fontFamily=Courier New;" parent="1" vertex="1">
                    <mxGeometry x="400" y="280" width="30" height="30" as="geometry"/>
                </mxCell>
                <mxCell id="W2y6yl1jh82kHbquKtIm-37" value="6" style="rounded=0;whiteSpace=wrap;html=1;fillColor=#f5f5f5;strokeColor=#666666;fontStyle=1;fontFamily=Courier New;fontColor=#333333;" parent="1" vertex="1">
                    <mxGeometry x="460" y="310" width="180" height="30" as="geometry"/>
                </mxCell>
                <mxCell id="W2y6yl1jh82kHbquKtIm-38" value="0" style="rounded=0;whiteSpace=wrap;html=1;fontStyle=1;fontFamily=Courier New;" parent="1" vertex="1">
                    <mxGeometry x="430" y="280" width="30" height="30" as="geometry"/>
                </mxCell>
                <mxCell id="W2y6yl1jh82kHbquKtIm-39" value="n" style="rounded=0;whiteSpace=wrap;html=1;fillColor=#dae8fc;strokeColor=#6c8ebf;fontStyle=1;fontFamily=Courier New;" parent="1" vertex="1">
                    <mxGeometry x="110" y="280" width="30" height="30" as="geometry"/>
                </mxCell>
                <mxCell id="W2y6yl1jh82kHbquKtIm-40" value="n" style="rounded=0;whiteSpace=wrap;html=1;fillColor=#dae8fc;strokeColor=#6c8ebf;fontStyle=1;fontFamily=Courier New;" parent="1" vertex="1">
                    <mxGeometry x="80" y="280" width="30" height="30" as="geometry"/>
                </mxCell>
                <mxCell id="W2y6yl1jh82kHbquKtIm-41" value="n" style="rounded=0;whiteSpace=wrap;html=1;fillColor=#dae8fc;strokeColor=#6c8ebf;fontStyle=1;fontFamily=Courier New;" parent="1" vertex="1">
                    <mxGeometry x="50" y="280" width="30" height="30" as="geometry"/>
                </mxCell>
                <mxCell id="W2y6yl1jh82kHbquKtIm-42" value="n" style="rounded=0;whiteSpace=wrap;html=1;fillColor=#dae8fc;strokeColor=#6c8ebf;fontStyle=1;fontFamily=Courier New;" parent="1" vertex="1">
                    <mxGeometry x="20" y="280" width="30" height="30" as="geometry"/>
                </mxCell>
                <mxCell id="W2y6yl1jh82kHbquKtIm-44" value="1" style="rounded=0;whiteSpace=wrap;html=1;fontStyle=1;fontFamily=Courier New;" parent="1" vertex="1">
                    <mxGeometry x="-100" y="280" width="30" height="30" as="geometry"/>
                </mxCell>
                <mxCell id="W2y6yl1jh82kHbquKtIm-45" value="4" style="rounded=0;whiteSpace=wrap;html=1;fillColor=#f5f5f5;strokeColor=#666666;fontStyle=1;fontFamily=Courier New;fontColor=#333333;" parent="1" vertex="1">
                    <mxGeometry x="20" y="310" width="120" height="30" as="geometry"/>
                </mxCell>
                <mxCell id="W2y6yl1jh82kHbquKtIm-46" value="0" style="rounded=0;whiteSpace=wrap;html=1;fontStyle=1;fontFamily=Courier New;" parent="1" vertex="1">
                    <mxGeometry x="-10" y="280" width="30" height="30" as="geometry"/>
                </mxCell>
                <mxCell id="W2y6yl1jh82kHbquKtIm-47" value="1" style="rounded=0;whiteSpace=wrap;html=1;fontStyle=1;fontFamily=Courier New;" parent="1" vertex="1">
                    <mxGeometry x="-70" y="280" width="30" height="30" as="geometry"/>
                </mxCell>
                <mxCell id="W2y6yl1jh82kHbquKtIm-48" value="n" style="rounded=0;whiteSpace=wrap;html=1;fillColor=#dae8fc;strokeColor=#6c8ebf;fontStyle=1;fontFamily=Courier New;" parent="1" vertex="1">
                    <mxGeometry x="360" y="280" width="30" height="30" as="geometry"/>
                </mxCell>
                <mxCell id="W2y6yl1jh82kHbquKtIm-49" value="n" style="rounded=0;whiteSpace=wrap;html=1;fillColor=#dae8fc;strokeColor=#6c8ebf;fontStyle=1;fontFamily=Courier New;" parent="1" vertex="1">
                    <mxGeometry x="330" y="280" width="30" height="30" as="geometry"/>
                </mxCell>
                <mxCell id="W2y6yl1jh82kHbquKtIm-50" value="n" style="rounded=0;whiteSpace=wrap;html=1;fillColor=#dae8fc;strokeColor=#6c8ebf;fontStyle=1;fontFamily=Courier New;" parent="1" vertex="1">
                    <mxGeometry x="300" y="280" width="30" height="30" as="geometry"/>
                </mxCell>
                <mxCell id="W2y6yl1jh82kHbquKtIm-51" value="n" style="rounded=0;whiteSpace=wrap;html=1;fillColor=#dae8fc;strokeColor=#6c8ebf;fontStyle=1;fontFamily=Courier New;" parent="1" vertex="1">
                    <mxGeometry x="270" y="280" width="30" height="30" as="geometry"/>
                </mxCell>
                <mxCell id="W2y6yl1jh82kHbquKtIm-52" value="n" style="rounded=0;whiteSpace=wrap;html=1;fillColor=#dae8fc;strokeColor=#6c8ebf;fontStyle=1;fontFamily=Courier New;" parent="1" vertex="1">
                    <mxGeometry x="240" y="280" width="30" height="30" as="geometry"/>
                </mxCell>
                <mxCell id="W2y6yl1jh82kHbquKtIm-53" value="n" style="rounded=0;whiteSpace=wrap;html=1;fillColor=#dae8fc;strokeColor=#6c8ebf;fontStyle=1;fontFamily=Courier New;" parent="1" vertex="1">
                    <mxGeometry x="210" y="280" width="30" height="30" as="geometry"/>
                </mxCell>
                <mxCell id="W2y6yl1jh82kHbquKtIm-54" value="1" style="rounded=0;whiteSpace=wrap;html=1;fontStyle=1;fontFamily=Courier New;" parent="1" vertex="1">
                    <mxGeometry x="150" y="280" width="30" height="30" as="geometry"/>
                </mxCell>
                <mxCell id="W2y6yl1jh82kHbquKtIm-55" value="6" style="rounded=0;whiteSpace=wrap;html=1;fillColor=#f5f5f5;strokeColor=#666666;fontStyle=1;fontFamily=Courier New;fontColor=#333333;" parent="1" vertex="1">
                    <mxGeometry x="210" y="310" width="180" height="30" as="geometry"/>
                </mxCell>
                <mxCell id="W2y6yl1jh82kHbquKtIm-56" value="0" style="rounded=0;whiteSpace=wrap;html=1;fontStyle=1;fontFamily=Courier New;" parent="1" vertex="1">
                    <mxGeometry x="180" y="280" width="30" height="30" as="geometry"/>
                </mxCell>
                <mxCell id="W2y6yl1jh82kHbquKtIm-57" value="1" style="rounded=0;whiteSpace=wrap;html=1;fontStyle=1;fontFamily=Courier New;" parent="1" vertex="1">
                    <mxGeometry x="-40" y="280" width="30" height="30" as="geometry"/>
                </mxCell>
                <mxCell id="W2y6yl1jh82kHbquKtIm-85" value="n" style="rounded=0;whiteSpace=wrap;html=1;fillColor=#dae8fc;strokeColor=#6c8ebf;fontStyle=1;fontFamily=Courier New;" parent="1" vertex="1">
                    <mxGeometry x="610" y="380" width="30" height="30" as="geometry"/>
                </mxCell>
                <mxCell id="W2y6yl1jh82kHbquKtIm-86" value="n" style="rounded=0;whiteSpace=wrap;html=1;fillColor=#dae8fc;strokeColor=#6c8ebf;fontStyle=1;fontFamily=Courier New;" parent="1" vertex="1">
                    <mxGeometry x="580" y="380" width="30" height="30" as="geometry"/>
                </mxCell>
                <mxCell id="W2y6yl1jh82kHbquKtIm-87" value="n" style="rounded=0;whiteSpace=wrap;html=1;fillColor=#dae8fc;strokeColor=#6c8ebf;fontStyle=1;fontFamily=Courier New;" parent="1" vertex="1">
                    <mxGeometry x="550" y="380" width="30" height="30" as="geometry"/>
                </mxCell>
                <mxCell id="W2y6yl1jh82kHbquKtIm-88" value="n" style="rounded=0;whiteSpace=wrap;html=1;fillColor=#dae8fc;strokeColor=#6c8ebf;fontStyle=1;fontFamily=Courier New;" parent="1" vertex="1">
                    <mxGeometry x="520" y="380" width="30" height="30" as="geometry"/>
                </mxCell>
                <mxCell id="W2y6yl1jh82kHbquKtIm-89" value="n" style="rounded=0;whiteSpace=wrap;html=1;fillColor=#dae8fc;strokeColor=#6c8ebf;fontStyle=1;fontFamily=Courier New;" parent="1" vertex="1">
                    <mxGeometry x="490" y="380" width="30" height="30" as="geometry"/>
                </mxCell>
                <mxCell id="W2y6yl1jh82kHbquKtIm-90" value="n" style="rounded=0;whiteSpace=wrap;html=1;fillColor=#dae8fc;strokeColor=#6c8ebf;fontStyle=1;fontFamily=Courier New;" parent="1" vertex="1">
                    <mxGeometry x="460" y="380" width="30" height="30" as="geometry"/>
                </mxCell>
                <mxCell id="W2y6yl1jh82kHbquKtIm-91" value="1" style="rounded=0;whiteSpace=wrap;html=1;fontStyle=1;fontFamily=Courier New;" parent="1" vertex="1">
                    <mxGeometry x="400" y="380" width="30" height="30" as="geometry"/>
                </mxCell>
                <mxCell id="W2y6yl1jh82kHbquKtIm-92" value="6" style="rounded=0;whiteSpace=wrap;html=1;fillColor=#f5f5f5;strokeColor=#666666;fontStyle=1;fontFamily=Courier New;fontColor=#333333;" parent="1" vertex="1">
                    <mxGeometry x="460" y="410" width="180" height="30" as="geometry"/>
                </mxCell>
                <mxCell id="W2y6yl1jh82kHbquKtIm-93" value="0" style="rounded=0;whiteSpace=wrap;html=1;fontStyle=1;fontFamily=Courier New;" parent="1" vertex="1">
                    <mxGeometry x="430" y="380" width="30" height="30" as="geometry"/>
                </mxCell>
                <mxCell id="W2y6yl1jh82kHbquKtIm-94" value="n" style="rounded=0;whiteSpace=wrap;html=1;fillColor=#dae8fc;strokeColor=#6c8ebf;fontStyle=1;fontFamily=Courier New;" parent="1" vertex="1">
                    <mxGeometry x="-140" y="380" width="30" height="30" as="geometry"/>
                </mxCell>
                <mxCell id="W2y6yl1jh82kHbquKtIm-95" value="n" style="rounded=0;whiteSpace=wrap;html=1;fillColor=#dae8fc;strokeColor=#6c8ebf;fontStyle=1;fontFamily=Courier New;" parent="1" vertex="1">
                    <mxGeometry x="-170" y="380" width="30" height="30" as="geometry"/>
                </mxCell>
                <mxCell id="W2y6yl1jh82kHbquKtIm-96" value="n" style="rounded=0;whiteSpace=wrap;html=1;fillColor=#dae8fc;strokeColor=#6c8ebf;fontStyle=1;fontFamily=Courier New;" parent="1" vertex="1">
                    <mxGeometry x="-200" y="380" width="30" height="30" as="geometry"/>
                </mxCell>
                <mxCell id="W2y6yl1jh82kHbquKtIm-98" value="1" style="rounded=0;whiteSpace=wrap;html=1;fontStyle=1;fontFamily=Courier New;" parent="1" vertex="1">
                    <mxGeometry x="-350" y="380" width="30" height="30" as="geometry"/>
                </mxCell>
                <mxCell id="W2y6yl1jh82kHbquKtIm-99" value="3" style="rounded=0;whiteSpace=wrap;html=1;fillColor=#f5f5f5;strokeColor=#666666;fontStyle=1;fontFamily=Courier New;fontColor=#333333;" parent="1" vertex="1">
                    <mxGeometry x="-200" y="410" width="90" height="30" as="geometry"/>
                </mxCell>
                <mxCell id="W2y6yl1jh82kHbquKtIm-100" value="0" style="rounded=0;whiteSpace=wrap;html=1;fontStyle=1;fontFamily=Courier New;" parent="1" vertex="1">
                    <mxGeometry x="-230" y="380" width="30" height="30" as="geometry"/>
                </mxCell>
                <mxCell id="W2y6yl1jh82kHbquKtIm-101" value="1" style="rounded=0;whiteSpace=wrap;html=1;fontStyle=1;fontFamily=Courier New;" parent="1" vertex="1">
                    <mxGeometry x="-320" y="380" width="30" height="30" as="geometry"/>
                </mxCell>
                <mxCell id="W2y6yl1jh82kHbquKtIm-102" value="n" style="rounded=0;whiteSpace=wrap;html=1;fillColor=#dae8fc;strokeColor=#6c8ebf;fontStyle=1;fontFamily=Courier New;" parent="1" vertex="1">
                    <mxGeometry x="360" y="380" width="30" height="30" as="geometry"/>
                </mxCell>
                <mxCell id="W2y6yl1jh82kHbquKtIm-103" value="n" style="rounded=0;whiteSpace=wrap;html=1;fillColor=#dae8fc;strokeColor=#6c8ebf;fontStyle=1;fontFamily=Courier New;" parent="1" vertex="1">
                    <mxGeometry x="330" y="380" width="30" height="30" as="geometry"/>
                </mxCell>
                <mxCell id="W2y6yl1jh82kHbquKtIm-104" value="n" style="rounded=0;whiteSpace=wrap;html=1;fillColor=#dae8fc;strokeColor=#6c8ebf;fontStyle=1;fontFamily=Courier New;" parent="1" vertex="1">
                    <mxGeometry x="300" y="380" width="30" height="30" as="geometry"/>
                </mxCell>
                <mxCell id="W2y6yl1jh82kHbquKtIm-105" value="n" style="rounded=0;whiteSpace=wrap;html=1;fillColor=#dae8fc;strokeColor=#6c8ebf;fontStyle=1;fontFamily=Courier New;" parent="1" vertex="1">
                    <mxGeometry x="270" y="380" width="30" height="30" as="geometry"/>
                </mxCell>
                <mxCell id="W2y6yl1jh82kHbquKtIm-106" value="n" style="rounded=0;whiteSpace=wrap;html=1;fillColor=#dae8fc;strokeColor=#6c8ebf;fontStyle=1;fontFamily=Courier New;" parent="1" vertex="1">
                    <mxGeometry x="240" y="380" width="30" height="30" as="geometry"/>
                </mxCell>
                <mxCell id="W2y6yl1jh82kHbquKtIm-107" value="n" style="rounded=0;whiteSpace=wrap;html=1;fillColor=#dae8fc;strokeColor=#6c8ebf;fontStyle=1;fontFamily=Courier New;" parent="1" vertex="1">
                    <mxGeometry x="210" y="380" width="30" height="30" as="geometry"/>
                </mxCell>
                <mxCell id="W2y6yl1jh82kHbquKtIm-108" value="1" style="rounded=0;whiteSpace=wrap;html=1;fontStyle=1;fontFamily=Courier New;" parent="1" vertex="1">
                    <mxGeometry x="150" y="380" width="30" height="30" as="geometry"/>
                </mxCell>
                <mxCell id="W2y6yl1jh82kHbquKtIm-109" value="6" style="rounded=0;whiteSpace=wrap;html=1;fillColor=#f5f5f5;strokeColor=#666666;fontStyle=1;fontFamily=Courier New;fontColor=#333333;" parent="1" vertex="1">
                    <mxGeometry x="210" y="410" width="180" height="30" as="geometry"/>
                </mxCell>
                <mxCell id="W2y6yl1jh82kHbquKtIm-110" value="0" style="rounded=0;whiteSpace=wrap;html=1;fontStyle=1;fontFamily=Courier New;" parent="1" vertex="1">
                    <mxGeometry x="180" y="380" width="30" height="30" as="geometry"/>
                </mxCell>
                <mxCell id="W2y6yl1jh82kHbquKtIm-111" value="1" style="rounded=0;whiteSpace=wrap;html=1;fontStyle=1;fontFamily=Courier New;" parent="1" vertex="1">
                    <mxGeometry x="-290" y="380" width="30" height="30" as="geometry"/>
                </mxCell>
                <mxCell id="W2y6yl1jh82kHbquKtIm-112" value="n" style="rounded=0;whiteSpace=wrap;html=1;fillColor=#dae8fc;strokeColor=#6c8ebf;fontStyle=1;fontFamily=Courier New;" parent="1" vertex="1">
                    <mxGeometry x="110" y="380" width="30" height="30" as="geometry"/>
                </mxCell>
                <mxCell id="W2y6yl1jh82kHbquKtIm-113" value="n" style="rounded=0;whiteSpace=wrap;html=1;fillColor=#dae8fc;strokeColor=#6c8ebf;fontStyle=1;fontFamily=Courier New;" parent="1" vertex="1">
                    <mxGeometry x="80" y="380" width="30" height="30" as="geometry"/>
                </mxCell>
                <mxCell id="W2y6yl1jh82kHbquKtIm-114" value="n" style="rounded=0;whiteSpace=wrap;html=1;fillColor=#dae8fc;strokeColor=#6c8ebf;fontStyle=1;fontFamily=Courier New;" parent="1" vertex="1">
                    <mxGeometry x="50" y="380" width="30" height="30" as="geometry"/>
                </mxCell>
                <mxCell id="W2y6yl1jh82kHbquKtIm-115" value="n" style="rounded=0;whiteSpace=wrap;html=1;fillColor=#dae8fc;strokeColor=#6c8ebf;fontStyle=1;fontFamily=Courier New;" parent="1" vertex="1">
                    <mxGeometry x="20" y="380" width="30" height="30" as="geometry"/>
                </mxCell>
                <mxCell id="W2y6yl1jh82kHbquKtIm-116" value="n" style="rounded=0;whiteSpace=wrap;html=1;fillColor=#dae8fc;strokeColor=#6c8ebf;fontStyle=1;fontFamily=Courier New;" parent="1" vertex="1">
                    <mxGeometry x="-10" y="380" width="30" height="30" as="geometry"/>
                </mxCell>
                <mxCell id="W2y6yl1jh82kHbquKtIm-117" value="n" style="rounded=0;whiteSpace=wrap;html=1;fillColor=#dae8fc;strokeColor=#6c8ebf;fontStyle=1;fontFamily=Courier New;" parent="1" vertex="1">
                    <mxGeometry x="-40" y="380" width="30" height="30" as="geometry"/>
                </mxCell>
                <mxCell id="W2y6yl1jh82kHbquKtIm-118" value="1" style="rounded=0;whiteSpace=wrap;html=1;fontStyle=1;fontFamily=Courier New;" parent="1" vertex="1">
                    <mxGeometry x="-100" y="380" width="30" height="30" as="geometry"/>
                </mxCell>
                <mxCell id="W2y6yl1jh82kHbquKtIm-119" value="6" style="rounded=0;whiteSpace=wrap;html=1;fillColor=#f5f5f5;strokeColor=#666666;fontStyle=1;fontFamily=Courier New;fontColor=#333333;" parent="1" vertex="1">
                    <mxGeometry x="-40" y="410" width="180" height="30" as="geometry"/>
                </mxCell>
                <mxCell id="W2y6yl1jh82kHbquKtIm-120" value="0" style="rounded=0;whiteSpace=wrap;html=1;fontStyle=1;fontFamily=Courier New;" parent="1" vertex="1">
                    <mxGeometry x="-70" y="380" width="30" height="30" as="geometry"/>
                </mxCell>
                <mxCell id="W2y6yl1jh82kHbquKtIm-121" value="1" style="rounded=0;whiteSpace=wrap;html=1;fontStyle=1;fontFamily=Courier New;" parent="1" vertex="1">
                    <mxGeometry x="-260" y="380" width="30" height="30" as="geometry"/>
                </mxCell>
                <mxCell id="W2y6yl1jh82kHbquKtIm-122" value="n" style="rounded=0;whiteSpace=wrap;html=1;fillColor=#dae8fc;strokeColor=#6c8ebf;fontStyle=1;fontFamily=Courier New;" parent="1" vertex="1">
                    <mxGeometry x="610" y="480" width="30" height="30" as="geometry"/>
                </mxCell>
                <mxCell id="W2y6yl1jh82kHbquKtIm-123" value="n" style="rounded=0;whiteSpace=wrap;html=1;fillColor=#dae8fc;strokeColor=#6c8ebf;fontStyle=1;fontFamily=Courier New;" parent="1" vertex="1">
                    <mxGeometry x="580" y="480" width="30" height="30" as="geometry"/>
                </mxCell>
                <mxCell id="W2y6yl1jh82kHbquKtIm-124" value="n" style="rounded=0;whiteSpace=wrap;html=1;fillColor=#dae8fc;strokeColor=#6c8ebf;fontStyle=1;fontFamily=Courier New;" parent="1" vertex="1">
                    <mxGeometry x="550" y="480" width="30" height="30" as="geometry"/>
                </mxCell>
                <mxCell id="W2y6yl1jh82kHbquKtIm-125" value="n" style="rounded=0;whiteSpace=wrap;html=1;fillColor=#dae8fc;strokeColor=#6c8ebf;fontStyle=1;fontFamily=Courier New;" parent="1" vertex="1">
                    <mxGeometry x="520" y="480" width="30" height="30" as="geometry"/>
                </mxCell>
                <mxCell id="W2y6yl1jh82kHbquKtIm-126" value="n" style="rounded=0;whiteSpace=wrap;html=1;fillColor=#dae8fc;strokeColor=#6c8ebf;fontStyle=1;fontFamily=Courier New;" parent="1" vertex="1">
                    <mxGeometry x="490" y="480" width="30" height="30" as="geometry"/>
                </mxCell>
                <mxCell id="W2y6yl1jh82kHbquKtIm-127" value="n" style="rounded=0;whiteSpace=wrap;html=1;fillColor=#dae8fc;strokeColor=#6c8ebf;fontStyle=1;fontFamily=Courier New;" parent="1" vertex="1">
                    <mxGeometry x="460" y="480" width="30" height="30" as="geometry"/>
                </mxCell>
                <mxCell id="W2y6yl1jh82kHbquKtIm-128" value="1" style="rounded=0;whiteSpace=wrap;html=1;fontStyle=1;fontFamily=Courier New;" parent="1" vertex="1">
                    <mxGeometry x="400" y="480" width="30" height="30" as="geometry"/>
                </mxCell>
                <mxCell id="W2y6yl1jh82kHbquKtIm-129" value="6" style="rounded=0;whiteSpace=wrap;html=1;fillColor=#f5f5f5;strokeColor=#666666;fontStyle=1;fontFamily=Courier New;fontColor=#333333;" parent="1" vertex="1">
                    <mxGeometry x="460" y="510" width="180" height="30" as="geometry"/>
                </mxCell>
                <mxCell id="W2y6yl1jh82kHbquKtIm-130" value="0" style="rounded=0;whiteSpace=wrap;html=1;fontStyle=1;fontFamily=Courier New;" parent="1" vertex="1">
                    <mxGeometry x="430" y="480" width="30" height="30" as="geometry"/>
                </mxCell>
                <mxCell id="W2y6yl1jh82kHbquKtIm-138" value="n" style="rounded=0;whiteSpace=wrap;html=1;fillColor=#dae8fc;strokeColor=#6c8ebf;fontStyle=1;fontFamily=Courier New;" parent="1" vertex="1">
                    <mxGeometry x="360" y="480" width="30" height="30" as="geometry"/>
                </mxCell>
                <mxCell id="W2y6yl1jh82kHbquKtIm-139" value="n" style="rounded=0;whiteSpace=wrap;html=1;fillColor=#dae8fc;strokeColor=#6c8ebf;fontStyle=1;fontFamily=Courier New;" parent="1" vertex="1">
                    <mxGeometry x="330" y="480" width="30" height="30" as="geometry"/>
                </mxCell>
                <mxCell id="W2y6yl1jh82kHbquKtIm-140" value="n" style="rounded=0;whiteSpace=wrap;html=1;fillColor=#dae8fc;strokeColor=#6c8ebf;fontStyle=1;fontFamily=Courier New;" parent="1" vertex="1">
                    <mxGeometry x="300" y="480" width="30" height="30" as="geometry"/>
                </mxCell>
                <mxCell id="W2y6yl1jh82kHbquKtIm-141" value="n" style="rounded=0;whiteSpace=wrap;html=1;fillColor=#dae8fc;strokeColor=#6c8ebf;fontStyle=1;fontFamily=Courier New;" parent="1" vertex="1">
                    <mxGeometry x="270" y="480" width="30" height="30" as="geometry"/>
                </mxCell>
                <mxCell id="W2y6yl1jh82kHbquKtIm-142" value="n" style="rounded=0;whiteSpace=wrap;html=1;fillColor=#dae8fc;strokeColor=#6c8ebf;fontStyle=1;fontFamily=Courier New;" parent="1" vertex="1">
                    <mxGeometry x="240" y="480" width="30" height="30" as="geometry"/>
                </mxCell>
                <mxCell id="W2y6yl1jh82kHbquKtIm-143" value="n" style="rounded=0;whiteSpace=wrap;html=1;fillColor=#dae8fc;strokeColor=#6c8ebf;fontStyle=1;fontFamily=Courier New;" parent="1" vertex="1">
                    <mxGeometry x="210" y="480" width="30" height="30" as="geometry"/>
                </mxCell>
                <mxCell id="W2y6yl1jh82kHbquKtIm-144" value="1" style="rounded=0;whiteSpace=wrap;html=1;fontStyle=1;fontFamily=Courier New;" parent="1" vertex="1">
                    <mxGeometry x="150" y="480" width="30" height="30" as="geometry"/>
                </mxCell>
                <mxCell id="W2y6yl1jh82kHbquKtIm-145" value="6" style="rounded=0;whiteSpace=wrap;html=1;fillColor=#f5f5f5;strokeColor=#666666;fontStyle=1;fontFamily=Courier New;fontColor=#333333;" parent="1" vertex="1">
                    <mxGeometry x="210" y="510" width="180" height="30" as="geometry"/>
                </mxCell>
                <mxCell id="W2y6yl1jh82kHbquKtIm-146" value="0" style="rounded=0;whiteSpace=wrap;html=1;fontStyle=1;fontFamily=Courier New;" parent="1" vertex="1">
                    <mxGeometry x="180" y="480" width="30" height="30" as="geometry"/>
                </mxCell>
                <mxCell id="W2y6yl1jh82kHbquKtIm-148" value="n" style="rounded=0;whiteSpace=wrap;html=1;fillColor=#dae8fc;strokeColor=#6c8ebf;fontStyle=1;fontFamily=Courier New;" parent="1" vertex="1">
                    <mxGeometry x="110" y="480" width="30" height="30" as="geometry"/>
                </mxCell>
                <mxCell id="W2y6yl1jh82kHbquKtIm-149" value="n" style="rounded=0;whiteSpace=wrap;html=1;fillColor=#dae8fc;strokeColor=#6c8ebf;fontStyle=1;fontFamily=Courier New;" parent="1" vertex="1">
                    <mxGeometry x="80" y="480" width="30" height="30" as="geometry"/>
                </mxCell>
                <mxCell id="W2y6yl1jh82kHbquKtIm-150" value="n" style="rounded=0;whiteSpace=wrap;html=1;fillColor=#dae8fc;strokeColor=#6c8ebf;fontStyle=1;fontFamily=Courier New;" parent="1" vertex="1">
                    <mxGeometry x="50" y="480" width="30" height="30" as="geometry"/>
                </mxCell>
                <mxCell id="W2y6yl1jh82kHbquKtIm-151" value="n" style="rounded=0;whiteSpace=wrap;html=1;fillColor=#dae8fc;strokeColor=#6c8ebf;fontStyle=1;fontFamily=Courier New;" parent="1" vertex="1">
                    <mxGeometry x="20" y="480" width="30" height="30" as="geometry"/>
                </mxCell>
                <mxCell id="W2y6yl1jh82kHbquKtIm-152" value="n" style="rounded=0;whiteSpace=wrap;html=1;fillColor=#dae8fc;strokeColor=#6c8ebf;fontStyle=1;fontFamily=Courier New;" parent="1" vertex="1">
                    <mxGeometry x="-10" y="480" width="30" height="30" as="geometry"/>
                </mxCell>
                <mxCell id="W2y6yl1jh82kHbquKtIm-153" value="n" style="rounded=0;whiteSpace=wrap;html=1;fillColor=#dae8fc;strokeColor=#6c8ebf;fontStyle=1;fontFamily=Courier New;" parent="1" vertex="1">
                    <mxGeometry x="-40" y="480" width="30" height="30" as="geometry"/>
                </mxCell>
                <mxCell id="W2y6yl1jh82kHbquKtIm-154" value="1" style="rounded=0;whiteSpace=wrap;html=1;fontStyle=1;fontFamily=Courier New;" parent="1" vertex="1">
                    <mxGeometry x="-100" y="480" width="30" height="30" as="geometry"/>
                </mxCell>
                <mxCell id="W2y6yl1jh82kHbquKtIm-155" value="6" style="rounded=0;whiteSpace=wrap;html=1;fillColor=#f5f5f5;strokeColor=#666666;fontStyle=1;fontFamily=Courier New;fontColor=#333333;" parent="1" vertex="1">
                    <mxGeometry x="-40" y="510" width="180" height="30" as="geometry"/>
                </mxCell>
                <mxCell id="W2y6yl1jh82kHbquKtIm-156" value="0" style="rounded=0;whiteSpace=wrap;html=1;fontStyle=1;fontFamily=Courier New;" parent="1" vertex="1">
                    <mxGeometry x="-70" y="480" width="30" height="30" as="geometry"/>
                </mxCell>
                <mxCell id="W2y6yl1jh82kHbquKtIm-158" value="n" style="rounded=0;whiteSpace=wrap;html=1;fillColor=#dae8fc;strokeColor=#6c8ebf;fontStyle=1;fontFamily=Courier New;" parent="1" vertex="1">
                    <mxGeometry x="-390" y="480" width="30" height="30" as="geometry"/>
                </mxCell>
                <mxCell id="W2y6yl1jh82kHbquKtIm-159" value="n" style="rounded=0;whiteSpace=wrap;html=1;fillColor=#dae8fc;strokeColor=#6c8ebf;fontStyle=1;fontFamily=Courier New;" parent="1" vertex="1">
                    <mxGeometry x="-420" y="480" width="30" height="30" as="geometry"/>
                </mxCell>
                <mxCell id="W2y6yl1jh82kHbquKtIm-161" value="1" style="rounded=0;whiteSpace=wrap;html=1;fontStyle=1;fontFamily=Courier New;" parent="1" vertex="1">
                    <mxGeometry x="-600" y="480" width="30" height="30" as="geometry"/>
                </mxCell>
                <mxCell id="W2y6yl1jh82kHbquKtIm-162" value="2" style="rounded=0;whiteSpace=wrap;html=1;fillColor=#f5f5f5;strokeColor=#666666;fontStyle=1;fontFamily=Courier New;fontColor=#333333;" parent="1" vertex="1">
                    <mxGeometry x="-420" y="510" width="60" height="30" as="geometry"/>
                </mxCell>
                <mxCell id="W2y6yl1jh82kHbquKtIm-163" value="0" style="rounded=0;whiteSpace=wrap;html=1;fontStyle=1;fontFamily=Courier New;" parent="1" vertex="1">
                    <mxGeometry x="-450" y="480" width="30" height="30" as="geometry"/>
                </mxCell>
                <mxCell id="W2y6yl1jh82kHbquKtIm-164" value="1" style="rounded=0;whiteSpace=wrap;html=1;fontStyle=1;fontFamily=Courier New;" parent="1" vertex="1">
                    <mxGeometry x="-570" y="480" width="30" height="30" as="geometry"/>
                </mxCell>
                <mxCell id="W2y6yl1jh82kHbquKtIm-165" value="1" style="rounded=0;whiteSpace=wrap;html=1;fontStyle=1;fontFamily=Courier New;" parent="1" vertex="1">
                    <mxGeometry x="-540" y="480" width="30" height="30" as="geometry"/>
                </mxCell>
                <mxCell id="W2y6yl1jh82kHbquKtIm-166" value="1" style="rounded=0;whiteSpace=wrap;html=1;fontStyle=1;fontFamily=Courier New;" parent="1" vertex="1">
                    <mxGeometry x="-510" y="480" width="30" height="30" as="geometry"/>
                </mxCell>
                <mxCell id="W2y6yl1jh82kHbquKtIm-167" value="n" style="rounded=0;whiteSpace=wrap;html=1;fillColor=#dae8fc;strokeColor=#6c8ebf;fontStyle=1;fontFamily=Courier New;" parent="1" vertex="1">
                    <mxGeometry x="-140" y="480" width="30" height="30" as="geometry"/>
                </mxCell>
                <mxCell id="W2y6yl1jh82kHbquKtIm-168" value="n" style="rounded=0;whiteSpace=wrap;html=1;fillColor=#dae8fc;strokeColor=#6c8ebf;fontStyle=1;fontFamily=Courier New;" parent="1" vertex="1">
                    <mxGeometry x="-170" y="480" width="30" height="30" as="geometry"/>
                </mxCell>
                <mxCell id="W2y6yl1jh82kHbquKtIm-169" value="n" style="rounded=0;whiteSpace=wrap;html=1;fillColor=#dae8fc;strokeColor=#6c8ebf;fontStyle=1;fontFamily=Courier New;" parent="1" vertex="1">
                    <mxGeometry x="-200" y="480" width="30" height="30" as="geometry"/>
                </mxCell>
                <mxCell id="W2y6yl1jh82kHbquKtIm-170" value="n" style="rounded=0;whiteSpace=wrap;html=1;fillColor=#dae8fc;strokeColor=#6c8ebf;fontStyle=1;fontFamily=Courier New;" parent="1" vertex="1">
                    <mxGeometry x="-230" y="480" width="30" height="30" as="geometry"/>
                </mxCell>
                <mxCell id="W2y6yl1jh82kHbquKtIm-171" value="n" style="rounded=0;whiteSpace=wrap;html=1;fillColor=#dae8fc;strokeColor=#6c8ebf;fontStyle=1;fontFamily=Courier New;" parent="1" vertex="1">
                    <mxGeometry x="-260" y="480" width="30" height="30" as="geometry"/>
                </mxCell>
                <mxCell id="W2y6yl1jh82kHbquKtIm-172" value="n" style="rounded=0;whiteSpace=wrap;html=1;fillColor=#dae8fc;strokeColor=#6c8ebf;fontStyle=1;fontFamily=Courier New;" parent="1" vertex="1">
                    <mxGeometry x="-290" y="480" width="30" height="30" as="geometry"/>
                </mxCell>
                <mxCell id="W2y6yl1jh82kHbquKtIm-173" value="1" style="rounded=0;whiteSpace=wrap;html=1;fontStyle=1;fontFamily=Courier New;" parent="1" vertex="1">
                    <mxGeometry x="-350" y="480" width="30" height="30" as="geometry"/>
                </mxCell>
                <mxCell id="W2y6yl1jh82kHbquKtIm-174" value="6" style="rounded=0;whiteSpace=wrap;html=1;fillColor=#f5f5f5;strokeColor=#666666;fontStyle=1;fontFamily=Courier New;fontColor=#333333;" parent="1" vertex="1">
                    <mxGeometry x="-290" y="510" width="180" height="30" as="geometry"/>
                </mxCell>
                <mxCell id="W2y6yl1jh82kHbquKtIm-175" value="0" style="rounded=0;whiteSpace=wrap;html=1;fontStyle=1;fontFamily=Courier New;" parent="1" vertex="1">
                    <mxGeometry x="-320" y="480" width="30" height="30" as="geometry"/>
                </mxCell>
                <mxCell id="W2y6yl1jh82kHbquKtIm-176" value="1" style="rounded=0;whiteSpace=wrap;html=1;fontStyle=1;fontFamily=Courier New;" parent="1" vertex="1">
                    <mxGeometry x="-480" y="480" width="30" height="30" as="geometry"/>
                </mxCell>
                <mxCell id="W2y6yl1jh82kHbquKtIm-177" value="n" style="rounded=0;whiteSpace=wrap;html=1;fillColor=#dae8fc;strokeColor=#6c8ebf;fontStyle=1;fontFamily=Courier New;" parent="1" vertex="1">
                    <mxGeometry x="610" y="580" width="30" height="30" as="geometry"/>
                </mxCell>
                <mxCell id="W2y6yl1jh82kHbquKtIm-178" value="n" style="rounded=0;whiteSpace=wrap;html=1;fillColor=#dae8fc;strokeColor=#6c8ebf;fontStyle=1;fontFamily=Courier New;" parent="1" vertex="1">
                    <mxGeometry x="580" y="580" width="30" height="30" as="geometry"/>
                </mxCell>
                <mxCell id="W2y6yl1jh82kHbquKtIm-179" value="n" style="rounded=0;whiteSpace=wrap;html=1;fillColor=#dae8fc;strokeColor=#6c8ebf;fontStyle=1;fontFamily=Courier New;" parent="1" vertex="1">
                    <mxGeometry x="550" y="580" width="30" height="30" as="geometry"/>
                </mxCell>
                <mxCell id="W2y6yl1jh82kHbquKtIm-180" value="n" style="rounded=0;whiteSpace=wrap;html=1;fillColor=#dae8fc;strokeColor=#6c8ebf;fontStyle=1;fontFamily=Courier New;" parent="1" vertex="1">
                    <mxGeometry x="520" y="580" width="30" height="30" as="geometry"/>
                </mxCell>
                <mxCell id="W2y6yl1jh82kHbquKtIm-181" value="n" style="rounded=0;whiteSpace=wrap;html=1;fillColor=#dae8fc;strokeColor=#6c8ebf;fontStyle=1;fontFamily=Courier New;" parent="1" vertex="1">
                    <mxGeometry x="490" y="580" width="30" height="30" as="geometry"/>
                </mxCell>
                <mxCell id="W2y6yl1jh82kHbquKtIm-182" value="n" style="rounded=0;whiteSpace=wrap;html=1;fillColor=#dae8fc;strokeColor=#6c8ebf;fontStyle=1;fontFamily=Courier New;" parent="1" vertex="1">
                    <mxGeometry x="460" y="580" width="30" height="30" as="geometry"/>
                </mxCell>
                <mxCell id="W2y6yl1jh82kHbquKtIm-183" value="1" style="rounded=0;whiteSpace=wrap;html=1;fontStyle=1;fontFamily=Courier New;" parent="1" vertex="1">
                    <mxGeometry x="400" y="580" width="30" height="30" as="geometry"/>
                </mxCell>
                <mxCell id="W2y6yl1jh82kHbquKtIm-184" value="6" style="rounded=0;whiteSpace=wrap;html=1;fillColor=#f5f5f5;strokeColor=#666666;fontStyle=1;fontFamily=Courier New;fontColor=#333333;" parent="1" vertex="1">
                    <mxGeometry x="460" y="610" width="180" height="30" as="geometry"/>
                </mxCell>
                <mxCell id="W2y6yl1jh82kHbquKtIm-185" value="0" style="rounded=0;whiteSpace=wrap;html=1;fontStyle=1;fontFamily=Courier New;" parent="1" vertex="1">
                    <mxGeometry x="430" y="580" width="30" height="30" as="geometry"/>
                </mxCell>
                <mxCell id="W2y6yl1jh82kHbquKtIm-186" value="n" style="rounded=0;whiteSpace=wrap;html=1;fillColor=#dae8fc;strokeColor=#6c8ebf;fontStyle=1;fontFamily=Courier New;" parent="1" vertex="1">
                    <mxGeometry x="360" y="580" width="30" height="30" as="geometry"/>
                </mxCell>
                <mxCell id="W2y6yl1jh82kHbquKtIm-187" value="n" style="rounded=0;whiteSpace=wrap;html=1;fillColor=#dae8fc;strokeColor=#6c8ebf;fontStyle=1;fontFamily=Courier New;" parent="1" vertex="1">
                    <mxGeometry x="330" y="580" width="30" height="30" as="geometry"/>
                </mxCell>
                <mxCell id="W2y6yl1jh82kHbquKtIm-188" value="n" style="rounded=0;whiteSpace=wrap;html=1;fillColor=#dae8fc;strokeColor=#6c8ebf;fontStyle=1;fontFamily=Courier New;" parent="1" vertex="1">
                    <mxGeometry x="300" y="580" width="30" height="30" as="geometry"/>
                </mxCell>
                <mxCell id="W2y6yl1jh82kHbquKtIm-189" value="n" style="rounded=0;whiteSpace=wrap;html=1;fillColor=#dae8fc;strokeColor=#6c8ebf;fontStyle=1;fontFamily=Courier New;" parent="1" vertex="1">
                    <mxGeometry x="270" y="580" width="30" height="30" as="geometry"/>
                </mxCell>
                <mxCell id="W2y6yl1jh82kHbquKtIm-190" value="n" style="rounded=0;whiteSpace=wrap;html=1;fillColor=#dae8fc;strokeColor=#6c8ebf;fontStyle=1;fontFamily=Courier New;" parent="1" vertex="1">
                    <mxGeometry x="240" y="580" width="30" height="30" as="geometry"/>
                </mxCell>
                <mxCell id="W2y6yl1jh82kHbquKtIm-191" value="n" style="rounded=0;whiteSpace=wrap;html=1;fillColor=#dae8fc;strokeColor=#6c8ebf;fontStyle=1;fontFamily=Courier New;" parent="1" vertex="1">
                    <mxGeometry x="210" y="580" width="30" height="30" as="geometry"/>
                </mxCell>
                <mxCell id="W2y6yl1jh82kHbquKtIm-192" value="1" style="rounded=0;whiteSpace=wrap;html=1;fontStyle=1;fontFamily=Courier New;" parent="1" vertex="1">
                    <mxGeometry x="150" y="580" width="30" height="30" as="geometry"/>
                </mxCell>
                <mxCell id="W2y6yl1jh82kHbquKtIm-193" value="6" style="rounded=0;whiteSpace=wrap;html=1;fillColor=#f5f5f5;strokeColor=#666666;fontStyle=1;fontFamily=Courier New;fontColor=#333333;" parent="1" vertex="1">
                    <mxGeometry x="210" y="610" width="180" height="30" as="geometry"/>
                </mxCell>
                <mxCell id="W2y6yl1jh82kHbquKtIm-194" value="0" style="rounded=0;whiteSpace=wrap;html=1;fontStyle=1;fontFamily=Courier New;" parent="1" vertex="1">
                    <mxGeometry x="180" y="580" width="30" height="30" as="geometry"/>
                </mxCell>
                <mxCell id="W2y6yl1jh82kHbquKtIm-195" value="n" style="rounded=0;whiteSpace=wrap;html=1;fillColor=#dae8fc;strokeColor=#6c8ebf;fontStyle=1;fontFamily=Courier New;" parent="1" vertex="1">
                    <mxGeometry x="110" y="580" width="30" height="30" as="geometry"/>
                </mxCell>
                <mxCell id="W2y6yl1jh82kHbquKtIm-196" value="n" style="rounded=0;whiteSpace=wrap;html=1;fillColor=#dae8fc;strokeColor=#6c8ebf;fontStyle=1;fontFamily=Courier New;" parent="1" vertex="1">
                    <mxGeometry x="80" y="580" width="30" height="30" as="geometry"/>
                </mxCell>
                <mxCell id="W2y6yl1jh82kHbquKtIm-197" value="n" style="rounded=0;whiteSpace=wrap;html=1;fillColor=#dae8fc;strokeColor=#6c8ebf;fontStyle=1;fontFamily=Courier New;" parent="1" vertex="1">
                    <mxGeometry x="50" y="580" width="30" height="30" as="geometry"/>
                </mxCell>
                <mxCell id="W2y6yl1jh82kHbquKtIm-198" value="n" style="rounded=0;whiteSpace=wrap;html=1;fillColor=#dae8fc;strokeColor=#6c8ebf;fontStyle=1;fontFamily=Courier New;" parent="1" vertex="1">
                    <mxGeometry x="20" y="580" width="30" height="30" as="geometry"/>
                </mxCell>
                <mxCell id="W2y6yl1jh82kHbquKtIm-199" value="n" style="rounded=0;whiteSpace=wrap;html=1;fillColor=#dae8fc;strokeColor=#6c8ebf;fontStyle=1;fontFamily=Courier New;" parent="1" vertex="1">
                    <mxGeometry x="-10" y="580" width="30" height="30" as="geometry"/>
                </mxCell>
                <mxCell id="W2y6yl1jh82kHbquKtIm-200" value="n" style="rounded=0;whiteSpace=wrap;html=1;fillColor=#dae8fc;strokeColor=#6c8ebf;fontStyle=1;fontFamily=Courier New;" parent="1" vertex="1">
                    <mxGeometry x="-40" y="580" width="30" height="30" as="geometry"/>
                </mxCell>
                <mxCell id="W2y6yl1jh82kHbquKtIm-201" value="1" style="rounded=0;whiteSpace=wrap;html=1;fontStyle=1;fontFamily=Courier New;" parent="1" vertex="1">
                    <mxGeometry x="-100" y="580" width="30" height="30" as="geometry"/>
                </mxCell>
                <mxCell id="W2y6yl1jh82kHbquKtIm-202" value="6" style="rounded=0;whiteSpace=wrap;html=1;fillColor=#f5f5f5;strokeColor=#666666;fontStyle=1;fontFamily=Courier New;fontColor=#333333;" parent="1" vertex="1">
                    <mxGeometry x="-40" y="610" width="180" height="30" as="geometry"/>
                </mxCell>
                <mxCell id="W2y6yl1jh82kHbquKtIm-203" value="0" style="rounded=0;whiteSpace=wrap;html=1;fontStyle=1;fontFamily=Courier New;" parent="1" vertex="1">
                    <mxGeometry x="-70" y="580" width="30" height="30" as="geometry"/>
                </mxCell>
                <mxCell id="W2y6yl1jh82kHbquKtIm-204" value="n" style="rounded=0;whiteSpace=wrap;html=1;fillColor=#dae8fc;strokeColor=#6c8ebf;fontStyle=1;fontFamily=Courier New;" parent="1" vertex="1">
                    <mxGeometry x="-640" y="580" width="30" height="30" as="geometry"/>
                </mxCell>
                <mxCell id="W2y6yl1jh82kHbquKtIm-206" value="1" style="rounded=0;whiteSpace=wrap;html=1;fontStyle=1;fontFamily=Courier New;" parent="1" vertex="1">
                    <mxGeometry x="-850" y="580" width="30" height="30" as="geometry"/>
                </mxCell>
                <mxCell id="W2y6yl1jh82kHbquKtIm-207" value="1" style="rounded=0;whiteSpace=wrap;html=1;fillColor=#f5f5f5;strokeColor=#666666;fontStyle=1;fontFamily=Courier New;fontColor=#333333;" parent="1" vertex="1">
                    <mxGeometry x="-640" y="610" width="30" height="30" as="geometry"/>
                </mxCell>
                <mxCell id="W2y6yl1jh82kHbquKtIm-208" value="0" style="rounded=0;whiteSpace=wrap;html=1;fontStyle=1;fontFamily=Courier New;" parent="1" vertex="1">
                    <mxGeometry x="-670" y="580" width="30" height="30" as="geometry"/>
                </mxCell>
                <mxCell id="W2y6yl1jh82kHbquKtIm-209" value="1" style="rounded=0;whiteSpace=wrap;html=1;fontStyle=1;fontFamily=Courier New;" parent="1" vertex="1">
                    <mxGeometry x="-820" y="580" width="30" height="30" as="geometry"/>
                </mxCell>
                <mxCell id="W2y6yl1jh82kHbquKtIm-210" value="1" style="rounded=0;whiteSpace=wrap;html=1;fontStyle=1;fontFamily=Courier New;" parent="1" vertex="1">
                    <mxGeometry x="-790" y="580" width="30" height="30" as="geometry"/>
                </mxCell>
                <mxCell id="W2y6yl1jh82kHbquKtIm-211" value="1" style="rounded=0;whiteSpace=wrap;html=1;fontStyle=1;fontFamily=Courier New;" parent="1" vertex="1">
                    <mxGeometry x="-760" y="580" width="30" height="30" as="geometry"/>
                </mxCell>
                <mxCell id="W2y6yl1jh82kHbquKtIm-212" value="n" style="rounded=0;whiteSpace=wrap;html=1;fillColor=#dae8fc;strokeColor=#6c8ebf;fontStyle=1;fontFamily=Courier New;" parent="1" vertex="1">
                    <mxGeometry x="-140" y="680" width="30" height="30" as="geometry"/>
                </mxCell>
                <mxCell id="W2y6yl1jh82kHbquKtIm-213" value="n" style="rounded=0;whiteSpace=wrap;html=1;fillColor=#dae8fc;strokeColor=#6c8ebf;fontStyle=1;fontFamily=Courier New;" parent="1" vertex="1">
                    <mxGeometry x="-170" y="580" width="30" height="30" as="geometry"/>
                </mxCell>
                <mxCell id="W2y6yl1jh82kHbquKtIm-214" value="n" style="rounded=0;whiteSpace=wrap;html=1;fillColor=#dae8fc;strokeColor=#6c8ebf;fontStyle=1;fontFamily=Courier New;" parent="1" vertex="1">
                    <mxGeometry x="-200" y="580" width="30" height="30" as="geometry"/>
                </mxCell>
                <mxCell id="W2y6yl1jh82kHbquKtIm-215" value="n" style="rounded=0;whiteSpace=wrap;html=1;fillColor=#dae8fc;strokeColor=#6c8ebf;fontStyle=1;fontFamily=Courier New;" parent="1" vertex="1">
                    <mxGeometry x="-230" y="580" width="30" height="30" as="geometry"/>
                </mxCell>
                <mxCell id="W2y6yl1jh82kHbquKtIm-216" value="n" style="rounded=0;whiteSpace=wrap;html=1;fillColor=#dae8fc;strokeColor=#6c8ebf;fontStyle=1;fontFamily=Courier New;" parent="1" vertex="1">
                    <mxGeometry x="-260" y="580" width="30" height="30" as="geometry"/>
                </mxCell>
                <mxCell id="W2y6yl1jh82kHbquKtIm-217" value="n" style="rounded=0;whiteSpace=wrap;html=1;fillColor=#dae8fc;strokeColor=#6c8ebf;fontStyle=1;fontFamily=Courier New;" parent="1" vertex="1">
                    <mxGeometry x="-290" y="580" width="30" height="30" as="geometry"/>
                </mxCell>
                <mxCell id="W2y6yl1jh82kHbquKtIm-218" value="1" style="rounded=0;whiteSpace=wrap;html=1;fontStyle=1;fontFamily=Courier New;" parent="1" vertex="1">
                    <mxGeometry x="-350" y="580" width="30" height="30" as="geometry"/>
                </mxCell>
                <mxCell id="W2y6yl1jh82kHbquKtIm-219" value="6" style="rounded=0;whiteSpace=wrap;html=1;fillColor=#f5f5f5;strokeColor=#666666;fontStyle=1;fontFamily=Courier New;fontColor=#333333;" parent="1" vertex="1">
                    <mxGeometry x="-290" y="610" width="180" height="30" as="geometry"/>
                </mxCell>
                <mxCell id="W2y6yl1jh82kHbquKtIm-220" value="0" style="rounded=0;whiteSpace=wrap;html=1;fontStyle=1;fontFamily=Courier New;" parent="1" vertex="1">
                    <mxGeometry x="-320" y="580" width="30" height="30" as="geometry"/>
                </mxCell>
                <mxCell id="W2y6yl1jh82kHbquKtIm-221" value="1" style="rounded=0;whiteSpace=wrap;html=1;fontStyle=1;fontFamily=Courier New;" parent="1" vertex="1">
                    <mxGeometry x="-730" y="580" width="30" height="30" as="geometry"/>
                </mxCell>
                <mxCell id="W2y6yl1jh82kHbquKtIm-231" value="1" style="rounded=0;whiteSpace=wrap;html=1;fontStyle=1;fontFamily=Courier New;" parent="1" vertex="1">
                    <mxGeometry x="-700" y="580" width="30" height="30" as="geometry"/>
                </mxCell>
                <mxCell id="W2y6yl1jh82kHbquKtIm-232" value="n" style="rounded=0;whiteSpace=wrap;html=1;fillColor=#dae8fc;strokeColor=#6c8ebf;fontStyle=1;fontFamily=Courier New;" parent="1" vertex="1">
                    <mxGeometry x="-390" y="580" width="30" height="30" as="geometry"/>
                </mxCell>
                <mxCell id="W2y6yl1jh82kHbquKtIm-233" value="n" style="rounded=0;whiteSpace=wrap;html=1;fillColor=#dae8fc;strokeColor=#6c8ebf;fontStyle=1;fontFamily=Courier New;" parent="1" vertex="1">
                    <mxGeometry x="-420" y="580" width="30" height="30" as="geometry"/>
                </mxCell>
                <mxCell id="W2y6yl1jh82kHbquKtIm-234" value="n" style="rounded=0;whiteSpace=wrap;html=1;fillColor=#dae8fc;strokeColor=#6c8ebf;fontStyle=1;fontFamily=Courier New;" parent="1" vertex="1">
                    <mxGeometry x="-450" y="580" width="30" height="30" as="geometry"/>
                </mxCell>
                <mxCell id="W2y6yl1jh82kHbquKtIm-235" value="n" style="rounded=0;whiteSpace=wrap;html=1;fillColor=#dae8fc;strokeColor=#6c8ebf;fontStyle=1;fontFamily=Courier New;" parent="1" vertex="1">
                    <mxGeometry x="-480" y="580" width="30" height="30" as="geometry"/>
                </mxCell>
                <mxCell id="W2y6yl1jh82kHbquKtIm-236" value="n" style="rounded=0;whiteSpace=wrap;html=1;fillColor=#dae8fc;strokeColor=#6c8ebf;fontStyle=1;fontFamily=Courier New;" parent="1" vertex="1">
                    <mxGeometry x="-510" y="580" width="30" height="30" as="geometry"/>
                </mxCell>
                <mxCell id="W2y6yl1jh82kHbquKtIm-237" value="n" style="rounded=0;whiteSpace=wrap;html=1;fillColor=#dae8fc;strokeColor=#6c8ebf;fontStyle=1;fontFamily=Courier New;" parent="1" vertex="1">
                    <mxGeometry x="-540" y="580" width="30" height="30" as="geometry"/>
                </mxCell>
                <mxCell id="W2y6yl1jh82kHbquKtIm-238" value="1" style="rounded=0;whiteSpace=wrap;html=1;fontStyle=1;fontFamily=Courier New;" parent="1" vertex="1">
                    <mxGeometry x="-600" y="580" width="30" height="30" as="geometry"/>
                </mxCell>
                <mxCell id="W2y6yl1jh82kHbquKtIm-239" value="6" style="rounded=0;whiteSpace=wrap;html=1;fillColor=#f5f5f5;strokeColor=#666666;fontStyle=1;fontFamily=Courier New;fontColor=#333333;" parent="1" vertex="1">
                    <mxGeometry x="-540" y="610" width="180" height="30" as="geometry"/>
                </mxCell>
                <mxCell id="W2y6yl1jh82kHbquKtIm-240" value="0" style="rounded=0;whiteSpace=wrap;html=1;fontStyle=1;fontFamily=Courier New;" parent="1" vertex="1">
                    <mxGeometry x="-570" y="580" width="30" height="30" as="geometry"/>
                </mxCell>
                <mxCell id="W2y6yl1jh82kHbquKtIm-241" value="n" style="rounded=0;whiteSpace=wrap;html=1;fillColor=#dae8fc;strokeColor=#6c8ebf;fontStyle=1;fontFamily=Courier New;" parent="1" vertex="1">
                    <mxGeometry x="-890" y="680" width="30" height="30" as="geometry"/>
                </mxCell>
                <mxCell id="W2y6yl1jh82kHbquKtIm-242" value="1" style="rounded=0;whiteSpace=wrap;html=1;fontStyle=1;fontFamily=Courier New;" parent="1" vertex="1">
                    <mxGeometry x="-1100" y="680" width="30" height="30" as="geometry"/>
                </mxCell>
                <mxCell id="W2y6yl1jh82kHbquKtIm-243" value="1" style="rounded=0;whiteSpace=wrap;html=1;fillColor=#f5f5f5;strokeColor=#666666;fontStyle=1;fontFamily=Courier New;fontColor=#333333;" parent="1" vertex="1">
                    <mxGeometry x="-890" y="710" width="30" height="30" as="geometry"/>
                </mxCell>
                <mxCell id="W2y6yl1jh82kHbquKtIm-244" value="1" style="rounded=0;whiteSpace=wrap;html=1;fontStyle=1;fontFamily=Courier New;" parent="1" vertex="1">
                    <mxGeometry x="-920" y="680" width="30" height="30" as="geometry"/>
                </mxCell>
                <mxCell id="W2y6yl1jh82kHbquKtIm-245" value="1" style="rounded=0;whiteSpace=wrap;html=1;fontStyle=1;fontFamily=Courier New;" parent="1" vertex="1">
                    <mxGeometry x="-1070" y="680" width="30" height="30" as="geometry"/>
                </mxCell>
                <mxCell id="W2y6yl1jh82kHbquKtIm-246" value="1" style="rounded=0;whiteSpace=wrap;html=1;fontStyle=1;fontFamily=Courier New;" parent="1" vertex="1">
                    <mxGeometry x="-1040" y="680" width="30" height="30" as="geometry"/>
                </mxCell>
                <mxCell id="W2y6yl1jh82kHbquKtIm-247" value="1" style="rounded=0;whiteSpace=wrap;html=1;fontStyle=1;fontFamily=Courier New;" parent="1" vertex="1">
                    <mxGeometry x="-1010" y="680" width="30" height="30" as="geometry"/>
                </mxCell>
                <mxCell id="W2y6yl1jh82kHbquKtIm-248" value="1" style="rounded=0;whiteSpace=wrap;html=1;fontStyle=1;fontFamily=Courier New;" parent="1" vertex="1">
                    <mxGeometry x="-980" y="680" width="30" height="30" as="geometry"/>
                </mxCell>
                <mxCell id="W2y6yl1jh82kHbquKtIm-249" value="1" style="rounded=0;whiteSpace=wrap;html=1;fontStyle=1;fontFamily=Courier New;" parent="1" vertex="1">
                    <mxGeometry x="-950" y="680" width="30" height="30" as="geometry"/>
                </mxCell>
                <mxCell id="W2y6yl1jh82kHbquKtIm-250" value="n" style="rounded=0;whiteSpace=wrap;html=1;fillColor=#dae8fc;strokeColor=#6c8ebf;fontStyle=1;fontFamily=Courier New;" parent="1" vertex="1">
                    <mxGeometry x="610" y="680" width="30" height="30" as="geometry"/>
                </mxCell>
                <mxCell id="W2y6yl1jh82kHbquKtIm-251" value="n" style="rounded=0;whiteSpace=wrap;html=1;fillColor=#dae8fc;strokeColor=#6c8ebf;fontStyle=1;fontFamily=Courier New;" parent="1" vertex="1">
                    <mxGeometry x="580" y="680" width="30" height="30" as="geometry"/>
                </mxCell>
                <mxCell id="W2y6yl1jh82kHbquKtIm-252" value="n" style="rounded=0;whiteSpace=wrap;html=1;fillColor=#dae8fc;strokeColor=#6c8ebf;fontStyle=1;fontFamily=Courier New;" parent="1" vertex="1">
                    <mxGeometry x="550" y="680" width="30" height="30" as="geometry"/>
                </mxCell>
                <mxCell id="W2y6yl1jh82kHbquKtIm-253" value="n" style="rounded=0;whiteSpace=wrap;html=1;fillColor=#dae8fc;strokeColor=#6c8ebf;fontStyle=1;fontFamily=Courier New;" parent="1" vertex="1">
                    <mxGeometry x="520" y="680" width="30" height="30" as="geometry"/>
                </mxCell>
                <mxCell id="W2y6yl1jh82kHbquKtIm-254" value="n" style="rounded=0;whiteSpace=wrap;html=1;fillColor=#dae8fc;strokeColor=#6c8ebf;fontStyle=1;fontFamily=Courier New;" parent="1" vertex="1">
                    <mxGeometry x="490" y="680" width="30" height="30" as="geometry"/>
                </mxCell>
                <mxCell id="W2y6yl1jh82kHbquKtIm-255" value="n" style="rounded=0;whiteSpace=wrap;html=1;fillColor=#dae8fc;strokeColor=#6c8ebf;fontStyle=1;fontFamily=Courier New;" parent="1" vertex="1">
                    <mxGeometry x="460" y="680" width="30" height="30" as="geometry"/>
                </mxCell>
                <mxCell id="W2y6yl1jh82kHbquKtIm-256" value="1" style="rounded=0;whiteSpace=wrap;html=1;fontStyle=1;fontFamily=Courier New;" parent="1" vertex="1">
                    <mxGeometry x="400" y="680" width="30" height="30" as="geometry"/>
                </mxCell>
                <mxCell id="W2y6yl1jh82kHbquKtIm-257" value="6" style="rounded=0;whiteSpace=wrap;html=1;fillColor=#f5f5f5;strokeColor=#666666;fontStyle=1;fontFamily=Courier New;fontColor=#333333;" parent="1" vertex="1">
                    <mxGeometry x="460" y="710" width="180" height="30" as="geometry"/>
                </mxCell>
                <mxCell id="W2y6yl1jh82kHbquKtIm-258" value="0" style="rounded=0;whiteSpace=wrap;html=1;fontStyle=1;fontFamily=Courier New;" parent="1" vertex="1">
                    <mxGeometry x="430" y="680" width="30" height="30" as="geometry"/>
                </mxCell>
                <mxCell id="W2y6yl1jh82kHbquKtIm-259" value="n" style="rounded=0;whiteSpace=wrap;html=1;fillColor=#dae8fc;strokeColor=#6c8ebf;fontStyle=1;fontFamily=Courier New;" parent="1" vertex="1">
                    <mxGeometry x="360" y="680" width="30" height="30" as="geometry"/>
                </mxCell>
                <mxCell id="W2y6yl1jh82kHbquKtIm-260" value="n" style="rounded=0;whiteSpace=wrap;html=1;fillColor=#dae8fc;strokeColor=#6c8ebf;fontStyle=1;fontFamily=Courier New;" parent="1" vertex="1">
                    <mxGeometry x="330" y="680" width="30" height="30" as="geometry"/>
                </mxCell>
                <mxCell id="W2y6yl1jh82kHbquKtIm-261" value="n" style="rounded=0;whiteSpace=wrap;html=1;fillColor=#dae8fc;strokeColor=#6c8ebf;fontStyle=1;fontFamily=Courier New;" parent="1" vertex="1">
                    <mxGeometry x="300" y="680" width="30" height="30" as="geometry"/>
                </mxCell>
                <mxCell id="W2y6yl1jh82kHbquKtIm-262" value="n" style="rounded=0;whiteSpace=wrap;html=1;fillColor=#dae8fc;strokeColor=#6c8ebf;fontStyle=1;fontFamily=Courier New;" parent="1" vertex="1">
                    <mxGeometry x="270" y="680" width="30" height="30" as="geometry"/>
                </mxCell>
                <mxCell id="W2y6yl1jh82kHbquKtIm-263" value="n" style="rounded=0;whiteSpace=wrap;html=1;fillColor=#dae8fc;strokeColor=#6c8ebf;fontStyle=1;fontFamily=Courier New;" parent="1" vertex="1">
                    <mxGeometry x="240" y="680" width="30" height="30" as="geometry"/>
                </mxCell>
                <mxCell id="W2y6yl1jh82kHbquKtIm-264" value="n" style="rounded=0;whiteSpace=wrap;html=1;fillColor=#dae8fc;strokeColor=#6c8ebf;fontStyle=1;fontFamily=Courier New;" parent="1" vertex="1">
                    <mxGeometry x="210" y="680" width="30" height="30" as="geometry"/>
                </mxCell>
                <mxCell id="W2y6yl1jh82kHbquKtIm-265" value="1" style="rounded=0;whiteSpace=wrap;html=1;fontStyle=1;fontFamily=Courier New;" parent="1" vertex="1">
                    <mxGeometry x="150" y="680" width="30" height="30" as="geometry"/>
                </mxCell>
                <mxCell id="W2y6yl1jh82kHbquKtIm-266" value="6" style="rounded=0;whiteSpace=wrap;html=1;fillColor=#f5f5f5;strokeColor=#666666;fontStyle=1;fontFamily=Courier New;fontColor=#333333;" parent="1" vertex="1">
                    <mxGeometry x="210" y="710" width="180" height="30" as="geometry"/>
                </mxCell>
                <mxCell id="W2y6yl1jh82kHbquKtIm-267" value="0" style="rounded=0;whiteSpace=wrap;html=1;fontStyle=1;fontFamily=Courier New;" parent="1" vertex="1">
                    <mxGeometry x="180" y="680" width="30" height="30" as="geometry"/>
                </mxCell>
                <mxCell id="W2y6yl1jh82kHbquKtIm-268" value="n" style="rounded=0;whiteSpace=wrap;html=1;fillColor=#dae8fc;strokeColor=#6c8ebf;fontStyle=1;fontFamily=Courier New;" parent="1" vertex="1">
                    <mxGeometry x="110" y="680" width="30" height="30" as="geometry"/>
                </mxCell>
                <mxCell id="W2y6yl1jh82kHbquKtIm-269" value="n" style="rounded=0;whiteSpace=wrap;html=1;fillColor=#dae8fc;strokeColor=#6c8ebf;fontStyle=1;fontFamily=Courier New;" parent="1" vertex="1">
                    <mxGeometry x="80" y="680" width="30" height="30" as="geometry"/>
                </mxCell>
                <mxCell id="W2y6yl1jh82kHbquKtIm-270" value="n" style="rounded=0;whiteSpace=wrap;html=1;fillColor=#dae8fc;strokeColor=#6c8ebf;fontStyle=1;fontFamily=Courier New;" parent="1" vertex="1">
                    <mxGeometry x="50" y="680" width="30" height="30" as="geometry"/>
                </mxCell>
                <mxCell id="W2y6yl1jh82kHbquKtIm-271" value="n" style="rounded=0;whiteSpace=wrap;html=1;fillColor=#dae8fc;strokeColor=#6c8ebf;fontStyle=1;fontFamily=Courier New;" parent="1" vertex="1">
                    <mxGeometry x="20" y="680" width="30" height="30" as="geometry"/>
                </mxCell>
                <mxCell id="W2y6yl1jh82kHbquKtIm-272" value="n" style="rounded=0;whiteSpace=wrap;html=1;fillColor=#dae8fc;strokeColor=#6c8ebf;fontStyle=1;fontFamily=Courier New;" parent="1" vertex="1">
                    <mxGeometry x="-10" y="680" width="30" height="30" as="geometry"/>
                </mxCell>
                <mxCell id="W2y6yl1jh82kHbquKtIm-273" value="n" style="rounded=0;whiteSpace=wrap;html=1;fillColor=#dae8fc;strokeColor=#6c8ebf;fontStyle=1;fontFamily=Courier New;" parent="1" vertex="1">
                    <mxGeometry x="-40" y="680" width="30" height="30" as="geometry"/>
                </mxCell>
                <mxCell id="W2y6yl1jh82kHbquKtIm-274" value="1" style="rounded=0;whiteSpace=wrap;html=1;fontStyle=1;fontFamily=Courier New;" parent="1" vertex="1">
                    <mxGeometry x="-100" y="680" width="30" height="30" as="geometry"/>
                </mxCell>
                <mxCell id="W2y6yl1jh82kHbquKtIm-275" value="6" style="rounded=0;whiteSpace=wrap;html=1;fillColor=#f5f5f5;strokeColor=#666666;fontStyle=1;fontFamily=Courier New;fontColor=#333333;" parent="1" vertex="1">
                    <mxGeometry x="-40" y="710" width="180" height="30" as="geometry"/>
                </mxCell>
                <mxCell id="W2y6yl1jh82kHbquKtIm-276" value="0" style="rounded=0;whiteSpace=wrap;html=1;fontStyle=1;fontFamily=Courier New;" parent="1" vertex="1">
                    <mxGeometry x="-70" y="680" width="30" height="30" as="geometry"/>
                </mxCell>
                <mxCell id="W2y6yl1jh82kHbquKtIm-277" value="n" style="rounded=0;whiteSpace=wrap;html=1;fillColor=#dae8fc;strokeColor=#6c8ebf;fontStyle=1;fontFamily=Courier New;" parent="1" vertex="1">
                    <mxGeometry x="-140" y="580" width="30" height="30" as="geometry"/>
                </mxCell>
                <mxCell id="W2y6yl1jh82kHbquKtIm-278" value="n" style="rounded=0;whiteSpace=wrap;html=1;fillColor=#dae8fc;strokeColor=#6c8ebf;fontStyle=1;fontFamily=Courier New;" parent="1" vertex="1">
                    <mxGeometry x="-170" y="680" width="30" height="30" as="geometry"/>
                </mxCell>
                <mxCell id="W2y6yl1jh82kHbquKtIm-279" value="n" style="rounded=0;whiteSpace=wrap;html=1;fillColor=#dae8fc;strokeColor=#6c8ebf;fontStyle=1;fontFamily=Courier New;" parent="1" vertex="1">
                    <mxGeometry x="-200" y="680" width="30" height="30" as="geometry"/>
                </mxCell>
                <mxCell id="W2y6yl1jh82kHbquKtIm-280" value="n" style="rounded=0;whiteSpace=wrap;html=1;fillColor=#dae8fc;strokeColor=#6c8ebf;fontStyle=1;fontFamily=Courier New;" parent="1" vertex="1">
                    <mxGeometry x="-230" y="680" width="30" height="30" as="geometry"/>
                </mxCell>
                <mxCell id="W2y6yl1jh82kHbquKtIm-281" value="n" style="rounded=0;whiteSpace=wrap;html=1;fillColor=#dae8fc;strokeColor=#6c8ebf;fontStyle=1;fontFamily=Courier New;" parent="1" vertex="1">
                    <mxGeometry x="-260" y="680" width="30" height="30" as="geometry"/>
                </mxCell>
                <mxCell id="W2y6yl1jh82kHbquKtIm-282" value="n" style="rounded=0;whiteSpace=wrap;html=1;fillColor=#dae8fc;strokeColor=#6c8ebf;fontStyle=1;fontFamily=Courier New;" parent="1" vertex="1">
                    <mxGeometry x="-290" y="680" width="30" height="30" as="geometry"/>
                </mxCell>
                <mxCell id="W2y6yl1jh82kHbquKtIm-283" value="1" style="rounded=0;whiteSpace=wrap;html=1;fontStyle=1;fontFamily=Courier New;" parent="1" vertex="1">
                    <mxGeometry x="-350" y="680" width="30" height="30" as="geometry"/>
                </mxCell>
                <mxCell id="W2y6yl1jh82kHbquKtIm-284" value="6" style="rounded=0;whiteSpace=wrap;html=1;fillColor=#f5f5f5;strokeColor=#666666;fontStyle=1;fontFamily=Courier New;fontColor=#333333;" parent="1" vertex="1">
                    <mxGeometry x="-290" y="710" width="180" height="30" as="geometry"/>
                </mxCell>
                <mxCell id="W2y6yl1jh82kHbquKtIm-285" value="0" style="rounded=0;whiteSpace=wrap;html=1;fontStyle=1;fontFamily=Courier New;" parent="1" vertex="1">
                    <mxGeometry x="-320" y="680" width="30" height="30" as="geometry"/>
                </mxCell>
                <mxCell id="W2y6yl1jh82kHbquKtIm-286" value="n" style="rounded=0;whiteSpace=wrap;html=1;fillColor=#dae8fc;strokeColor=#6c8ebf;fontStyle=1;fontFamily=Courier New;" parent="1" vertex="1">
                    <mxGeometry x="-390" y="680" width="30" height="30" as="geometry"/>
                </mxCell>
                <mxCell id="W2y6yl1jh82kHbquKtIm-287" value="n" style="rounded=0;whiteSpace=wrap;html=1;fillColor=#dae8fc;strokeColor=#6c8ebf;fontStyle=1;fontFamily=Courier New;" parent="1" vertex="1">
                    <mxGeometry x="-420" y="680" width="30" height="30" as="geometry"/>
                </mxCell>
                <mxCell id="W2y6yl1jh82kHbquKtIm-288" value="n" style="rounded=0;whiteSpace=wrap;html=1;fillColor=#dae8fc;strokeColor=#6c8ebf;fontStyle=1;fontFamily=Courier New;" parent="1" vertex="1">
                    <mxGeometry x="-450" y="680" width="30" height="30" as="geometry"/>
                </mxCell>
                <mxCell id="W2y6yl1jh82kHbquKtIm-289" value="n" style="rounded=0;whiteSpace=wrap;html=1;fillColor=#dae8fc;strokeColor=#6c8ebf;fontStyle=1;fontFamily=Courier New;" parent="1" vertex="1">
                    <mxGeometry x="-480" y="680" width="30" height="30" as="geometry"/>
                </mxCell>
                <mxCell id="W2y6yl1jh82kHbquKtIm-290" value="n" style="rounded=0;whiteSpace=wrap;html=1;fillColor=#dae8fc;strokeColor=#6c8ebf;fontStyle=1;fontFamily=Courier New;" parent="1" vertex="1">
                    <mxGeometry x="-510" y="680" width="30" height="30" as="geometry"/>
                </mxCell>
                <mxCell id="W2y6yl1jh82kHbquKtIm-291" value="n" style="rounded=0;whiteSpace=wrap;html=1;fillColor=#dae8fc;strokeColor=#6c8ebf;fontStyle=1;fontFamily=Courier New;" parent="1" vertex="1">
                    <mxGeometry x="-540" y="680" width="30" height="30" as="geometry"/>
                </mxCell>
                <mxCell id="W2y6yl1jh82kHbquKtIm-292" value="1" style="rounded=0;whiteSpace=wrap;html=1;fontStyle=1;fontFamily=Courier New;" parent="1" vertex="1">
                    <mxGeometry x="-600" y="680" width="30" height="30" as="geometry"/>
                </mxCell>
                <mxCell id="W2y6yl1jh82kHbquKtIm-293" value="6" style="rounded=0;whiteSpace=wrap;html=1;fillColor=#f5f5f5;strokeColor=#666666;fontStyle=1;fontFamily=Courier New;fontColor=#333333;" parent="1" vertex="1">
                    <mxGeometry x="-540" y="710" width="180" height="30" as="geometry"/>
                </mxCell>
                <mxCell id="W2y6yl1jh82kHbquKtIm-294" value="0" style="rounded=0;whiteSpace=wrap;html=1;fontStyle=1;fontFamily=Courier New;" parent="1" vertex="1">
                    <mxGeometry x="-570" y="680" width="30" height="30" as="geometry"/>
                </mxCell>
                <mxCell id="W2y6yl1jh82kHbquKtIm-295" value="n" style="rounded=0;whiteSpace=wrap;html=1;fillColor=#dae8fc;strokeColor=#6c8ebf;fontStyle=1;fontFamily=Courier New;" parent="1" vertex="1">
                    <mxGeometry x="-640" y="680" width="30" height="30" as="geometry"/>
                </mxCell>
                <mxCell id="W2y6yl1jh82kHbquKtIm-296" value="n" style="rounded=0;whiteSpace=wrap;html=1;fillColor=#dae8fc;strokeColor=#6c8ebf;fontStyle=1;fontFamily=Courier New;" parent="1" vertex="1">
                    <mxGeometry x="-670" y="680" width="30" height="30" as="geometry"/>
                </mxCell>
                <mxCell id="W2y6yl1jh82kHbquKtIm-297" value="n" style="rounded=0;whiteSpace=wrap;html=1;fillColor=#dae8fc;strokeColor=#6c8ebf;fontStyle=1;fontFamily=Courier New;" parent="1" vertex="1">
                    <mxGeometry x="-700" y="680" width="30" height="30" as="geometry"/>
                </mxCell>
                <mxCell id="W2y6yl1jh82kHbquKtIm-298" value="n" style="rounded=0;whiteSpace=wrap;html=1;fillColor=#dae8fc;strokeColor=#6c8ebf;fontStyle=1;fontFamily=Courier New;" parent="1" vertex="1">
                    <mxGeometry x="-730" y="680" width="30" height="30" as="geometry"/>
                </mxCell>
                <mxCell id="W2y6yl1jh82kHbquKtIm-299" value="n" style="rounded=0;whiteSpace=wrap;html=1;fillColor=#dae8fc;strokeColor=#6c8ebf;fontStyle=1;fontFamily=Courier New;" parent="1" vertex="1">
                    <mxGeometry x="-760" y="680" width="30" height="30" as="geometry"/>
                </mxCell>
                <mxCell id="W2y6yl1jh82kHbquKtIm-300" value="n" style="rounded=0;whiteSpace=wrap;html=1;fillColor=#dae8fc;strokeColor=#6c8ebf;fontStyle=1;fontFamily=Courier New;" parent="1" vertex="1">
                    <mxGeometry x="-790" y="680" width="30" height="30" as="geometry"/>
                </mxCell>
                <mxCell id="W2y6yl1jh82kHbquKtIm-301" value="1" style="rounded=0;whiteSpace=wrap;html=1;fontStyle=1;fontFamily=Courier New;" parent="1" vertex="1">
                    <mxGeometry x="-850" y="680" width="30" height="30" as="geometry"/>
                </mxCell>
                <mxCell id="W2y6yl1jh82kHbquKtIm-302" value="6" style="rounded=0;whiteSpace=wrap;html=1;fillColor=#f5f5f5;strokeColor=#666666;fontStyle=1;fontFamily=Courier New;fontColor=#333333;" parent="1" vertex="1">
                    <mxGeometry x="-790" y="710" width="180" height="30" as="geometry"/>
                </mxCell>
                <mxCell id="W2y6yl1jh82kHbquKtIm-303" value="0" style="rounded=0;whiteSpace=wrap;html=1;fontStyle=1;fontFamily=Courier New;" parent="1" vertex="1">
                    <mxGeometry x="-820" y="680" width="30" height="30" as="geometry"/>
                </mxCell>
                <mxCell id="W2y6yl1jh82kHbquKtIm-304" value="7" style="rounded=0;whiteSpace=wrap;html=1;fillColor=#f5f5f5;strokeColor=#666666;fontStyle=1;fontFamily=Courier New;fontColor=#333333;" parent="1" vertex="1">
                    <mxGeometry x="660" y="110" width="160" height="30" as="geometry"/>
                </mxCell>
                <mxCell id="W2y6yl1jh82kHbquKtIm-305" value="5+6=11" style="rounded=0;whiteSpace=wrap;html=1;fillColor=#f5f5f5;strokeColor=#666666;fontStyle=1;fontFamily=Courier New;fontColor=#333333;" parent="1" vertex="1">
                    <mxGeometry x="660" y="210" width="160" height="30" as="geometry"/>
                </mxCell>
                <mxCell id="W2y6yl1jh82kHbquKtIm-306" value="4+2*6=16" style="rounded=0;whiteSpace=wrap;html=1;fillColor=#f5f5f5;strokeColor=#666666;fontStyle=1;fontFamily=Courier New;fontColor=#333333;" parent="1" vertex="1">
                    <mxGeometry x="660" y="310" width="160" height="30" as="geometry"/>
                </mxCell>
                <mxCell id="W2y6yl1jh82kHbquKtIm-307" value="3+3*6=21" style="rounded=0;whiteSpace=wrap;html=1;fillColor=#f5f5f5;strokeColor=#666666;fontStyle=1;fontFamily=Courier New;fontColor=#333333;" parent="1" vertex="1">
                    <mxGeometry x="660" y="410" width="160" height="30" as="geometry"/>
                </mxCell>
                <mxCell id="W2y6yl1jh82kHbquKtIm-308" value="2+4*6=26" style="rounded=0;whiteSpace=wrap;html=1;fillColor=#f5f5f5;strokeColor=#666666;fontStyle=1;fontFamily=Courier New;fontColor=#333333;" parent="1" vertex="1">
                    <mxGeometry x="660" y="510" width="160" height="30" as="geometry"/>
                </mxCell>
                <mxCell id="W2y6yl1jh82kHbquKtIm-309" value="1+5*6=31" style="rounded=0;whiteSpace=wrap;html=1;fillColor=#f5f5f5;strokeColor=#666666;fontStyle=1;fontFamily=Courier New;fontColor=#333333;" parent="1" vertex="1">
                    <mxGeometry x="660" y="610" width="160" height="30" as="geometry"/>
                </mxCell>
                <mxCell id="W2y6yl1jh82kHbquKtIm-310" value="1+6*6=37" style="rounded=0;whiteSpace=wrap;html=1;fillColor=#f5f5f5;strokeColor=#666666;fontStyle=1;fontFamily=Courier New;fontColor=#333333;" parent="1" vertex="1">
                    <mxGeometry x="660" y="710" width="160" height="30" as="geometry"/>
                </mxCell>
                <mxCell id="W2y6yl1jh82kHbquKtIm-311" value="0 - 7F" style="rounded=0;whiteSpace=wrap;html=1;fillColor=#dae8fc;strokeColor=#6c8ebf;fontStyle=1;fontFamily=Courier New;" parent="1" vertex="1">
                    <mxGeometry x="660" y="80" width="160" height="30" as="geometry"/>
                </mxCell>
                <mxCell id="W2y6yl1jh82kHbquKtIm-312" value="80 - 7FF" style="rounded=0;whiteSpace=wrap;html=1;fillColor=#dae8fc;strokeColor=#6c8ebf;fontStyle=1;fontFamily=Courier New;" parent="1" vertex="1">
                    <mxGeometry x="660" y="180" width="160" height="30" as="geometry"/>
                </mxCell>
                <mxCell id="W2y6yl1jh82kHbquKtIm-313" value="800 - FFFF" style="rounded=0;whiteSpace=wrap;html=1;fillColor=#dae8fc;strokeColor=#6c8ebf;fontStyle=1;fontFamily=Courier New;" parent="1" vertex="1">
                    <mxGeometry x="660" y="280" width="160" height="30" as="geometry"/>
                </mxCell>
                <mxCell id="W2y6yl1jh82kHbquKtIm-314" value="10000 - 1FFFFF" style="rounded=0;whiteSpace=wrap;html=1;fillColor=#dae8fc;strokeColor=#6c8ebf;fontStyle=1;fontFamily=Courier New;" parent="1" vertex="1">
                    <mxGeometry x="660" y="380" width="160" height="30" as="geometry"/>
                </mxCell>
                <mxCell id="W2y6yl1jh82kHbquKtIm-315" value="200000 - 3FFFFFF" style="rounded=0;whiteSpace=wrap;html=1;fillColor=#dae8fc;strokeColor=#6c8ebf;fontStyle=1;fontFamily=Courier New;" parent="1" vertex="1">
                    <mxGeometry x="660" y="480" width="160" height="30" as="geometry"/>
                </mxCell>
                <mxCell id="W2y6yl1jh82kHbquKtIm-316" value="4000000 - 7FFFFFFF" style="rounded=0;whiteSpace=wrap;html=1;fillColor=#dae8fc;strokeColor=#6c8ebf;fontStyle=1;fontFamily=Courier New;" parent="1" vertex="1">
                    <mxGeometry x="660" y="580" width="160" height="30" as="geometry"/>
                </mxCell>
                <mxCell id="W2y6yl1jh82kHbquKtIm-317" value="80000000 - 1FFFFFFFFF" style="rounded=0;whiteSpace=wrap;html=1;fillColor=#dae8fc;strokeColor=#6c8ebf;fontStyle=1;fontFamily=Courier New;" parent="1" vertex="1">
                    <mxGeometry x="660" y="680" width="160" height="30" as="geometry"/>
                </mxCell>
                <mxCell id="W2y6yl1jh82kHbquKtIm-318" value="Full UTF8" style="rounded=0;whiteSpace=wrap;html=1;fontStyle=1;fontSize=24;" parent="1" vertex="1">
                    <mxGeometry x="580" y="-20" width="240" height="60" as="geometry"/>
                </mxCell>
            </root>
        </mxGraphModel>
    </diagram>
</mxfile>